<svg width="169" height="40" viewBox="0 0 169 40" fill="none" xmlns="http://www.w3.org/2000/svg">
<g filter="url(#filter0_d_2125_491)">
<path opacity="0.2" d="M30.6363 21.56C29.6667 23.4146 28.229 24.9834 26.4658 26.1107C24.7026 27.238 22.6753 27.8846 20.585 27.9863L20.9813 25.9313C21.0107 25.777 21.0035 25.618 20.96 25.467C20.9166 25.3161 20.8382 25.1775 20.7313 25.0625L18.2638 22.5213C18.1308 22.3777 18.0428 22.1982 18.0108 22.0051C17.9788 21.8121 18.0042 21.6138 18.0838 21.435L19.7963 17.5925C19.8843 17.3951 20.034 17.2314 20.2228 17.1262C20.4117 17.021 20.6295 16.9798 20.8438 17.0088L23.6963 17.3938C23.8344 17.4127 23.9672 17.4599 24.0863 17.5325L30.6363 21.56ZM18.5888 11.875L20.125 11.03C20.1928 10.9933 20.2558 10.9484 20.3125 10.8963L23.6763 7.85501C23.8437 7.70274 23.9545 7.49817 23.9906 7.27475C24.0267 7.05133 23.986 6.82227 23.875 6.62501L22.5625 4.27376C21.7206 4.09138 20.8615 3.99961 20 4.00001C17.2609 3.99584 14.6034 4.93269 12.4725 6.65376L11 10.135C10.9006 10.3707 10.8952 10.6355 10.985 10.875L12.4225 14.7088C12.4816 14.8654 12.579 15.0047 12.7059 15.1139C12.8328 15.2231 12.9851 15.2987 13.1488 15.3338L13.485 15.4063L15.15 12.5C15.2379 12.3478 15.3644 12.2214 15.5167 12.1336C15.669 12.0458 15.8417 11.9998 16.0175 12H18.1063C18.2751 12.0003 18.4413 11.9573 18.5888 11.875Z" fill="#EF5F4C"/>
<path d="M20 3C17.4288 3 14.9154 3.76244 12.7776 5.1909C10.6398 6.61935 8.97351 8.64968 7.98957 11.0251C7.00563 13.4006 6.74819 16.0144 7.2498 18.5362C7.75141 21.0579 8.98953 23.3743 10.8076 25.1924C12.6257 27.0105 14.9421 28.2486 17.4638 28.7502C19.9856 29.2518 22.5995 28.9944 24.9749 28.0104C27.3503 27.0265 29.3807 25.3603 30.8091 23.2224C32.2376 21.0846 33 18.5712 33 16C32.9964 12.5533 31.6256 9.24882 29.1884 6.81163C26.7512 4.37445 23.4467 3.00364 20 3ZM31 16C31.0011 17.4112 30.7295 18.8094 30.2 20.1175L24.6125 16.6812C24.3749 16.5347 24.1092 16.4397 23.8325 16.4025L20.98 16.0175C20.5869 15.9662 20.1875 16.0321 19.8317 16.2069C19.476 16.3817 19.1797 16.6576 18.98 17H17.89L17.415 16.0175C17.2837 15.7439 17.0915 15.504 16.8532 15.3162C16.6148 15.1283 16.3367 14.9975 16.04 14.9338L15.04 14.7175L16.0175 13H18.1063C18.4442 12.9993 18.7766 12.9133 19.0725 12.75L20.6038 11.905C20.7383 11.83 20.8641 11.7403 20.9788 11.6375L24.3425 8.595C24.6798 8.29277 24.9039 7.8846 24.978 7.43784C25.0521 6.99108 24.9717 6.53241 24.75 6.1375L24.705 6.05625C26.5873 6.94875 28.1778 8.35674 29.292 10.1168C30.4063 11.8769 30.9985 13.9169 31 16ZM21.9138 5.1675L23 7.1125L19.6363 10.155L18.1063 11H16.0175C15.6659 10.9995 15.3204 11.0916 15.0158 11.2672C14.7112 11.4428 14.4583 11.6955 14.2825 12L13.1913 13.9038L11.9225 10.5238L13.29 7.29C14.5004 6.35474 15.8929 5.68262 17.3781 5.31669C18.8633 4.95076 20.4086 4.8991 21.915 5.165L21.9138 5.1675ZM9.00001 16C8.99834 14.365 9.36311 12.7505 10.0675 11.275L11.485 15.0588C11.6031 15.372 11.798 15.6506 12.0518 15.869C12.3056 16.0874 12.6101 16.2386 12.9375 16.3088L15.6163 16.885L16.0925 17.875C16.2578 18.2117 16.5139 18.4955 16.832 18.6943C17.1501 18.8931 17.5174 18.999 17.8925 19H18.0775L17.1738 21.0287C17.0145 21.386 16.9635 21.782 17.0271 22.168C17.0906 22.5539 17.2659 22.9127 17.5313 23.2L17.5488 23.2175L20 25.7425L19.7575 26.9925C16.8848 26.9256 14.152 25.7387 12.1422 23.685C10.1324 21.6313 9.00477 18.8735 9.00001 16ZM21.8225 26.8475L21.9638 26.1213C22.0218 25.8127 22.0068 25.4949 21.92 25.1931C21.8332 24.8914 21.6769 24.6142 21.4638 24.3838C21.4576 24.3782 21.4518 24.3724 21.4463 24.3662L19 21.8425L20.7125 18L23.565 18.385L29.28 21.9C28.452 23.2003 27.3605 24.3125 26.076 25.1647C24.7914 26.0169 23.3424 26.5902 21.8225 26.8475Z" fill="#EF5F4C"/>
<path d="M55.34 8.96V11.7H51.62V23H48.2V11.7H44.48V8.96H55.34ZM60.4764 13.7C60.8764 13.0867 61.3764 12.6067 61.9764 12.26C62.5764 11.9 63.2431 11.72 63.9764 11.72V15.34H63.0364C62.1831 15.34 61.5431 15.5267 61.1164 15.9C60.6897 16.26 60.4764 16.9 60.4764 17.82V23H57.0564V11.84H60.4764V13.7ZM64.9311 17.4C64.9311 16.2533 65.1444 15.2467 65.5711 14.38C66.0111 13.5133 66.6044 12.8467 67.3511 12.38C68.0978 11.9133 68.9311 11.68 69.8511 11.68C70.6378 11.68 71.3244 11.84 71.9111 12.16C72.5111 12.48 72.9711 12.9 73.2911 13.42V11.84H76.7111V23H73.2911V21.42C72.9578 21.94 72.4911 22.36 71.8911 22.68C71.3044 23 70.6178 23.16 69.8311 23.16C68.9244 23.16 68.0978 22.9267 67.3511 22.46C66.6044 21.98 66.0111 21.3067 65.5711 20.44C65.1444 19.56 64.9311 18.5467 64.9311 17.4ZM73.2911 17.42C73.2911 16.5667 73.0511 15.8933 72.5711 15.4C72.1044 14.9067 71.5311 14.66 70.8511 14.66C70.1711 14.66 69.5911 14.9067 69.1111 15.4C68.6444 15.88 68.4111 16.5467 68.4111 17.4C68.4111 18.2533 68.6444 18.9333 69.1111 19.44C69.5911 19.9333 70.1711 20.18 70.8511 20.18C71.5311 20.18 72.1044 19.9333 72.5711 19.44C73.0511 18.9467 73.2911 18.2733 73.2911 17.42ZM84.2053 19.8L86.6253 11.84H90.2653L86.3053 23H82.0853L78.1253 11.84H81.7853L84.2053 19.8ZM102.225 17.24C102.225 17.56 102.205 17.8933 102.165 18.24H94.4248C94.4782 18.9333 94.6982 19.4667 95.0848 19.84C95.4848 20.2 95.9715 20.38 96.5448 20.38C97.3982 20.38 97.9915 20.02 98.3248 19.3H101.965C101.778 20.0333 101.438 20.6933 100.945 21.28C100.465 21.8667 99.8582 22.3267 99.1248 22.66C98.3915 22.9933 97.5715 23.16 96.6648 23.16C95.5715 23.16 94.5982 22.9267 93.7448 22.46C92.8915 21.9933 92.2248 21.3267 91.7448 20.46C91.2648 19.5933 91.0248 18.58 91.0248 17.42C91.0248 16.26 91.2582 15.2467 91.7248 14.38C92.2048 13.5133 92.8715 12.8467 93.7248 12.38C94.5782 11.9133 95.5582 11.68 96.6648 11.68C97.7448 11.68 98.7048 11.9067 99.5448 12.36C100.385 12.8133 101.038 13.46 101.505 14.3C101.985 15.14 102.225 16.12 102.225 17.24ZM98.7248 16.34C98.7248 15.7533 98.5248 15.2867 98.1248 14.94C97.7248 14.5933 97.2248 14.42 96.6248 14.42C96.0515 14.42 95.5648 14.5867 95.1648 14.92C94.7782 15.2533 94.5382 15.7267 94.4448 16.34H98.7248ZM107.449 8.2V23H104.029V8.2H107.449ZM114.168 11.68C114.954 11.68 115.641 11.84 116.228 12.16C116.828 12.48 117.288 12.9 117.608 13.42V11.84H121.028V22.98C121.028 24.0067 120.821 24.9333 120.408 25.76C120.008 26.6 119.388 27.2667 118.548 27.76C117.721 28.2533 116.688 28.5 115.448 28.5C113.794 28.5 112.454 28.1067 111.428 27.32C110.401 26.5467 109.814 25.4933 109.668 24.16H113.048C113.154 24.5867 113.408 24.92 113.808 25.16C114.208 25.4133 114.701 25.54 115.288 25.54C115.994 25.54 116.554 25.3333 116.968 24.92C117.394 24.52 117.608 23.8733 117.608 22.98V21.4C117.274 21.92 116.814 22.3467 116.228 22.68C115.641 23 114.954 23.16 114.168 23.16C113.248 23.16 112.414 22.9267 111.668 22.46C110.921 21.98 110.328 21.3067 109.888 20.44C109.461 19.56 109.248 18.5467 109.248 17.4C109.248 16.2533 109.461 15.2467 109.888 14.38C110.328 13.5133 110.921 12.8467 111.668 12.38C112.414 11.9133 113.248 11.68 114.168 11.68ZM117.608 17.42C117.608 16.5667 117.368 15.8933 116.888 15.4C116.421 14.9067 115.848 14.66 115.168 14.66C114.488 14.66 113.908 14.9067 113.428 15.4C112.961 15.88 112.728 16.5467 112.728 17.4C112.728 18.2533 112.961 18.9333 113.428 19.44C113.908 19.9333 114.488 20.18 115.168 20.18C115.848 20.18 116.421 19.9333 116.888 19.44C117.368 18.9467 117.608 18.2733 117.608 17.42ZM126.922 13.7C127.322 13.0867 127.822 12.6067 128.422 12.26C129.022 11.9 129.688 11.72 130.422 11.72V15.34H129.482C128.628 15.34 127.988 15.5267 127.562 15.9C127.135 16.26 126.922 16.9 126.922 17.82V23H123.502V11.84H126.922V13.7ZM131.376 17.4C131.376 16.2533 131.59 15.2467 132.016 14.38C132.456 13.5133 133.05 12.8467 133.796 12.38C134.543 11.9133 135.376 11.68 136.296 11.68C137.083 11.68 137.77 11.84 138.356 12.16C138.956 12.48 139.416 12.9 139.736 13.42V11.84H143.156V23H139.736V21.42C139.403 21.94 138.936 22.36 138.336 22.68C137.75 23 137.063 23.16 136.276 23.16C135.37 23.16 134.543 22.9267 133.796 22.46C133.05 21.98 132.456 21.3067 132.016 20.44C131.59 19.56 131.376 18.5467 131.376 17.4ZM139.736 17.42C139.736 16.5667 139.496 15.8933 139.016 15.4C138.55 14.9067 137.976 14.66 137.296 14.66C136.616 14.66 136.036 14.9067 135.556 15.4C135.09 15.88 134.856 16.5467 134.856 17.4C134.856 18.2533 135.09 18.9333 135.556 19.44C136.036 19.9333 136.616 20.18 137.296 20.18C137.976 20.18 138.55 19.9333 139.016 19.44C139.496 18.9467 139.736 18.2733 139.736 17.42ZM159.871 11.72C161.257 11.72 162.357 12.14 163.171 12.98C163.997 13.82 164.411 14.9867 164.411 16.48V23H161.011V16.94C161.011 16.22 160.817 15.6667 160.431 15.28C160.057 14.88 159.537 14.68 158.871 14.68C158.204 14.68 157.677 14.88 157.291 15.28C156.917 15.6667 156.731 16.22 156.731 16.94V23H153.331V16.94C153.331 16.22 153.137 15.6667 152.751 15.28C152.377 14.88 151.857 14.68 151.191 14.68C150.524 14.68 149.997 14.88 149.611 15.28C149.237 15.6667 149.051 16.22 149.051 16.94V23H145.631V11.84H149.051V13.24C149.397 12.7733 149.851 12.4067 150.411 12.14C150.971 11.86 151.604 11.72 152.311 11.72C153.151 11.72 153.897 11.9 154.551 12.26C155.217 12.62 155.737 13.1333 156.111 13.8C156.497 13.1867 157.024 12.6867 157.691 12.3C158.357 11.9133 159.084 11.72 159.871 11.72Z" fill="#EF5F4C"/>
</g>
<defs>
<filter id="filter0_d_2125_491" x="0" y="0" width="170" height="40" filterUnits="userSpaceOnUse" color-interpolation-filters="sRGB">
<feFlood flood-opacity="0" result="BackgroundImageFix"/>
<feColorMatrix in="SourceAlpha" type="matrix" values="0 0 0 0 0 0 0 0 0 0 0 0 0 0 0 0 0 0 127 0" result="hardAlpha"/>
<feOffset dy="4"/>
<feGaussianBlur stdDeviation="2"/>
<feComposite in2="hardAlpha" operator="out"/>
<feColorMatrix type="matrix" values="0 0 0 0 0 0 0 0 0 0 0 0 0 0 0 0 0 0 0.25 0"/>
<feBlend mode="normal" in2="BackgroundImageFix" result="effect1_dropShadow_2125_491"/>
<feBlend mode="normal" in="SourceGraphic" in2="effect1_dropShadow_2125_491" result="shape"/>
</filter>
</defs>
</svg>
